HIERARCHY
ROOT Hips
{
	OFFSET -0.001795 -0.223333 0.028219
	CHANNELS 6 Xposition Yposition Zposition Zrotation Yrotation Xrotation 
	JOINT LeftUpLeg
	{
		OFFSET 0.069520 -0.091406 -0.006815
		CHANNELS 3 Zrotation Yrotation Xrotation
		JOINT LeftLeg
		{
			OFFSET 0.034277 -0.375199 -0.004496
			CHANNELS 3 Zrotation Yrotation Xrotation
			JOINT LeftFoot
			{
				OFFSET -0.013596 -0.397961 -0.043693
				CHANNELS 3 Zrotation Yrotation Xrotation
				JOINT LeftToe
				{
					OFFSET 0.026358 -0.055791 0.119288
					CHANNELS 3 Zrotation Yrotation Xrotation
					End Site
					{
						OFFSET 0.000000 0.000000 0.000000
					}
				}
			}
		}
	}
	JOINT RightUpLeg
	{
		OFFSET -0.067670 -0.090522 -0.004320
		CHANNELS 3 Zrotation Yrotation Xrotation
		JOINT RightLeg
		{
			OFFSET -0.038290 -0.382569 -0.008850
			CHANNELS 3 Zrotation Yrotation Xrotation
			JOINT RightFoot
			{
				OFFSET 0.015774 -0.398415 -0.042312
				CHANNELS 3 Zrotation Yrotation Xrotation
				JOINT RightToe
				{
					OFFSET -0.025372 -0.048144 0.123348
					CHANNELS 3 Zrotation Yrotation Xrotation
					End Site
					{
						OFFSET 0.000000 0.000000 0.000000
					}
				}
			}
		}
	}
	JOINT Spine
	{
		OFFSET -0.002533 0.108963 -0.026696
		CHANNELS 3 Zrotation Yrotation Xrotation
		JOINT Spine1
		{
			OFFSET 0.005487 0.135180 0.001092
			CHANNELS 3 Zrotation Yrotation Xrotation
			JOINT Spine2
			{
				OFFSET 0.001457 0.052922 0.025425
				CHANNELS 3 Zrotation Yrotation Xrotation
				JOINT Neck
				{
					OFFSET -0.002778 0.213870 -0.042857
					CHANNELS 3 Zrotation Yrotation Xrotation
					JOINT Head
					{
						OFFSET 0.005152 0.064970 0.051349
						CHANNELS 3 Zrotation Yrotation Xrotation
						End Site
						{
							OFFSET 0.000000 0.000000 0.000000
						}
					}
				}
				JOINT LeftShoulder
				{
					OFFSET 0.078845 0.121749 -0.034090
					CHANNELS 3 Zrotation Yrotation Xrotation
					JOINT LeftArm
					{
						OFFSET 0.090977 0.030469 -0.008868
						CHANNELS 3 Zrotation Yrotation Xrotation
						JOINT LeftForeArm
						{
							OFFSET 0.259612 -0.012772 -0.027456
							CHANNELS 3 Zrotation Yrotation Xrotation
							JOINT LeftHand
							{
								OFFSET 0.249234 0.008986 -0.001171
								CHANNELS 3 Zrotation Yrotation Xrotation
								End Site
								{
									OFFSET 0.000000 0.000000 0.000000
								}
							}
						}
					}
				}
				JOINT RightShoulder
				{
					OFFSET -0.081759 0.118833 -0.038615
					CHANNELS 3 Zrotation Yrotation Xrotation
					JOINT RightArm
					{
						OFFSET -0.096012 0.032551 -0.009143
						CHANNELS 3 Zrotation Yrotation Xrotation
						JOINT RightForeArm
						{
							OFFSET -0.253742 -0.013329 -0.021401
							CHANNELS 3 Zrotation Yrotation Xrotation
							JOINT RightHand
							{
								OFFSET -0.255298 0.007772 -0.005559
								CHANNELS 3 Zrotation Yrotation Xrotation
								End Site
								{
									OFFSET 0.000000 0.000000 0.000000
								}
							}
						}
					}
				}
			}
		}
	}
}
MOTION
Frames: 6
Frame Time: 0.050000
0.000000 0.936709 0.000000 1.067412 -7.897274 -4.553151 -1.312455 -0.993687 -9.831250 -0.915216 -0.028379 12.926595 1.768420 5.936814 8.845479 0.000000 0.000000 0.000000 -2.497628 0.437443 -4.793336 -0.676849 4.314177 45.962887 2.891132 1.912713 8.011708 0.000000 0.000000 0.000000 2.234532 -0.348530 6.421591 -0.486137 0.211500 -2.906084 -0.944322 2.097146 6.716408 4.413262 -1.827950 -15.881615 0.000000 0.000000 0.000000 -21.354307 -19.867894 9.983504 -40.946869 -30.802334 4.985196 3.904428 -29.264520 0.214783 0.000000 0.000000 0.000000 23.377845 11.713911 4.021982 48.193100 18.924222 2.701990 -4.693882 37.301341 -0.378922 0.000000 0.000000 0.000000 
0.008269 0.939607 0.029151 0.116382 -7.603439 -4.603654 -0.934923 -0.784291 -7.913641 -1.240786 0.038189 13.143183 1.725603 5.611992 7.503767 0.000000 0.000000 0.000000 -3.085407 0.906869 -10.793660 2.325040 3.539724 55.083628 3.594157 0.395505 13.886502 0.000000 0.000000 0.000000 2.121482 -0.356210 6.671413 0.220147 -0.107615 -2.590718 -1.702535 0.662189 6.943200 4.936227 -1.977895 -18.498769 0.000000 0.000000 0.000000 -20.436925 -20.014642 10.261297 -38.981864 -34.236865 5.716847 6.143558 -27.973135 -0.301946 0.000000 0.000000 0.000000 21.791214 10.197927 2.827793 50.595272 18.143583 2.606634 -2.405804 37.534232 0.247305 0.000000 0.000000 0.000000 
0.013992 0.942826 0.056568 -0.426992 -7.434733 -5.237505 -1.783166 -0.493661 -4.393227 0.157416 -0.288193 11.443399 1.717644 5.416698 6.623185 0.000000 0.000000 0.000000 -2.527502 1.415501 -15.837890 3.274803 3.110027 57.917824 2.375785 -0.779754 11.617404 0.000000 0.000000 0.000000 2.448713 -0.452344 8.305318 0.820527 -0.364247 -3.883090 -2.862718 1.059454 7.444603 4.298514 -1.669025 -17.284454 0.000000 0.000000 0.000000 -18.712266 -21.741800 10.711980 -37.274694 -38.172310 6.722882 8.031641 -24.806876 -0.725768 0.000000 0.000000 0.000000 19.380355 10.505337 3.281808 51.206891 17.853345 2.371924 -2.322692 38.084578 0.365106 0.000000 0.000000 0.000000 
0.017150 0.946198 0.083598 -1.313649 -7.226905 -5.311449 -1.273277 -0.157140 -1.387411 0.282314 -0.289293 9.566402 1.527774 4.983529 6.152593 0.000000 0.000000 0.000000 -1.411220 1.943654 -19.443996 2.596810 3.015038 53.891277 1.817838 -0.056225 7.784679 0.000000 0.000000 0.000000 2.554230 -0.475596 8.561959 0.969685 -0.453435 -2.360388 -2.857250 -0.520129 6.381941 3.393308 -1.110335 -18.644320 0.000000 0.000000 0.000000 -17.771661 -21.663227 10.810941 -35.817210 -41.353314 7.464743 11.982542 -22.753763 -1.406944 0.000000 0.000000 0.000000 19.030193 10.376207 2.823256 50.220845 17.667884 2.412037 -3.648990 37.323783 -0.237426 0.000000 0.000000 0.000000 
0.018161 0.948279 0.111417 -1.969822 -6.854515 -5.135757 -1.165001 0.101103 1.018948 0.951624 -0.400287 8.279054 1.353565 4.572291 5.695134 0.000000 0.000000 0.000000 -0.416025 2.421075 -22.140304 0.787242 3.107475 45.733795 2.421689 1.328425 7.541054 0.000000 0.000000 0.000000 1.922137 -0.494898 9.707243 1.504077 -0.661242 -3.858340 -3.283426 -0.936785 7.138763 4.363543 -1.738726 -18.513055 0.000000 0.000000 0.000000 -16.612201 -22.845154 11.289176 -33.175507 -44.876973 7.753852 14.092352 -20.143144 -1.601575 0.000000 0.000000 0.000000 18.727824 9.864547 2.544386 49.332074 17.279959 2.118498 -3.215001 37.568204 -0.104342 0.000000 0.000000 0.000000 
0.017147 0.948420 0.140878 -2.287638 -5.951375 -4.960470 -0.739045 0.290535 2.837551 0.779375 -0.370565 8.063356 0.979539 3.721597 4.983226 0.000000 0.000000 0.000000 0.513154 2.696756 -23.224458 -1.015011 2.728233 35.190757 2.976738 1.856680 8.700640 0.000000 0.000000 0.000000 1.117706 -0.482311 10.697034 1.789834 -0.780265 -3.700648 -2.845086 -2.090685 6.306227 3.631697 -1.209937 -20.095462 0.000000 0.000000 0.000000 -15.835340 -22.732075 11.220024 -33.377851 -48.457924 9.082594 16.953895 -16.464213 -1.668603 0.000000 0.000000 0.000000 17.148279 10.249563 2.614572 49.880309 16.644938 1.974511 -4.081609 37.990236 -0.493646 0.000000 0.000000 0.000000 
